<mxfile host="app.diagrams.net" modified="2022-07-14T02:47:14.020Z" agent="5.0 (Macintosh; Intel Mac OS X 10_15_7) AppleWebKit/537.36 (KHTML, like Gecko) Chrome/102.0.0.0 Safari/537.36" etag="F_56zzTVEiFbKmNR3yQf" version="20.1.1" type="github">
  <diagram id="77WDoGPpaBxjXQUIE7XZ" name="Page-1">
    <mxGraphModel dx="1381" dy="769" grid="1" gridSize="10" guides="1" tooltips="1" connect="1" arrows="1" fold="1" page="1" pageScale="1" pageWidth="827" pageHeight="1169" math="0" shadow="0">
      <root>
        <mxCell id="0" />
        <mxCell id="1" parent="0" />
        <mxCell id="OLApJ6iFo3VQvdXCtHPA-3" value="" style="edgeStyle=orthogonalEdgeStyle;rounded=0;orthogonalLoop=1;jettySize=auto;html=1;fontSize=14;" edge="1" parent="1" source="OLApJ6iFo3VQvdXCtHPA-1" target="OLApJ6iFo3VQvdXCtHPA-2">
          <mxGeometry relative="1" as="geometry" />
        </mxCell>
        <mxCell id="OLApJ6iFo3VQvdXCtHPA-1" value="&lt;font style=&quot;font-size: 14px;&quot;&gt;调接口上传文件&lt;/font&gt;" style="rounded=1;whiteSpace=wrap;html=1;" vertex="1" parent="1">
          <mxGeometry x="240" y="260" width="120" height="50" as="geometry" />
        </mxCell>
        <mxCell id="OLApJ6iFo3VQvdXCtHPA-16" style="edgeStyle=none;rounded=0;orthogonalLoop=1;jettySize=auto;html=1;entryX=0.75;entryY=0.1;entryDx=0;entryDy=0;entryPerimeter=0;fontSize=14;dashed=1;" edge="1" parent="1" source="OLApJ6iFo3VQvdXCtHPA-2" target="OLApJ6iFo3VQvdXCtHPA-12">
          <mxGeometry relative="1" as="geometry">
            <Array as="points">
              <mxPoint x="520" y="120" />
              <mxPoint x="210" y="120" />
            </Array>
          </mxGeometry>
        </mxCell>
        <mxCell id="OLApJ6iFo3VQvdXCtHPA-2" value="VOD" style="rounded=0;whiteSpace=wrap;html=1;fontSize=14;" vertex="1" parent="1">
          <mxGeometry x="470" y="252.5" width="100" height="65" as="geometry" />
        </mxCell>
        <mxCell id="OLApJ6iFo3VQvdXCtHPA-4" value="文件上传到vod" style="text;html=1;strokeColor=none;fillColor=none;align=center;verticalAlign=middle;whiteSpace=wrap;rounded=0;fontSize=14;" vertex="1" parent="1">
          <mxGeometry x="380" y="230" width="60" height="30" as="geometry" />
        </mxCell>
        <mxCell id="OLApJ6iFo3VQvdXCtHPA-5" value="" style="rounded=0;whiteSpace=wrap;html=1;fontSize=14;" vertex="1" parent="1">
          <mxGeometry x="240" y="390" width="440" height="160" as="geometry" />
        </mxCell>
        <mxCell id="OLApJ6iFo3VQvdXCtHPA-6" value="SCF 转码" style="rounded=1;whiteSpace=wrap;html=1;fontSize=14;" vertex="1" parent="1">
          <mxGeometry x="270" y="410" width="100" height="40" as="geometry" />
        </mxCell>
        <mxCell id="OLApJ6iFo3VQvdXCtHPA-7" value="SCF 转码" style="rounded=1;whiteSpace=wrap;html=1;fontSize=14;" vertex="1" parent="1">
          <mxGeometry x="414" y="410" width="100" height="40" as="geometry" />
        </mxCell>
        <mxCell id="OLApJ6iFo3VQvdXCtHPA-8" value="SCF 转码" style="rounded=1;whiteSpace=wrap;html=1;fontSize=14;" vertex="1" parent="1">
          <mxGeometry x="550" y="410" width="100" height="40" as="geometry" />
        </mxCell>
        <mxCell id="OLApJ6iFo3VQvdXCtHPA-9" value="SCF 转码" style="rounded=1;whiteSpace=wrap;html=1;fontSize=14;" vertex="1" parent="1">
          <mxGeometry x="270" y="480" width="100" height="40" as="geometry" />
        </mxCell>
        <mxCell id="OLApJ6iFo3VQvdXCtHPA-10" value="SCF 转码" style="rounded=1;whiteSpace=wrap;html=1;fontSize=14;" vertex="1" parent="1">
          <mxGeometry x="414" y="480" width="100" height="40" as="geometry" />
        </mxCell>
        <mxCell id="OLApJ6iFo3VQvdXCtHPA-11" value="SCF 转码" style="rounded=1;whiteSpace=wrap;html=1;fontSize=14;" vertex="1" parent="1">
          <mxGeometry x="550" y="480" width="100" height="40" as="geometry" />
        </mxCell>
        <mxCell id="OLApJ6iFo3VQvdXCtHPA-13" style="rounded=0;orthogonalLoop=1;jettySize=auto;html=1;entryX=0;entryY=0.5;entryDx=0;entryDy=0;fontSize=14;" edge="1" parent="1" source="OLApJ6iFo3VQvdXCtHPA-12" target="OLApJ6iFo3VQvdXCtHPA-1">
          <mxGeometry relative="1" as="geometry" />
        </mxCell>
        <mxCell id="OLApJ6iFo3VQvdXCtHPA-14" style="edgeStyle=none;rounded=0;orthogonalLoop=1;jettySize=auto;html=1;entryX=0;entryY=0.5;entryDx=0;entryDy=0;fontSize=14;" edge="1" parent="1" source="OLApJ6iFo3VQvdXCtHPA-12" target="OLApJ6iFo3VQvdXCtHPA-5">
          <mxGeometry relative="1" as="geometry" />
        </mxCell>
        <mxCell id="OLApJ6iFo3VQvdXCtHPA-12" value="Actor" style="shape=umlActor;verticalLabelPosition=bottom;verticalAlign=top;html=1;outlineConnect=0;fontSize=14;" vertex="1" parent="1">
          <mxGeometry x="40" y="360" width="30" height="60" as="geometry" />
        </mxCell>
        <mxCell id="OLApJ6iFo3VQvdXCtHPA-15" value="把vod回调信息传递给scf，进行转码任务" style="text;html=1;strokeColor=none;fillColor=none;align=center;verticalAlign=middle;whiteSpace=wrap;rounded=0;fontSize=14;" vertex="1" parent="1">
          <mxGeometry x="80" y="470" width="150" height="35" as="geometry" />
        </mxCell>
        <mxCell id="OLApJ6iFo3VQvdXCtHPA-17" value="获取vod回调：&lt;br&gt;1、fileid&lt;br&gt;2、url" style="text;html=1;strokeColor=none;fillColor=none;align=center;verticalAlign=middle;whiteSpace=wrap;rounded=0;fontSize=14;" vertex="1" parent="1">
          <mxGeometry x="260" y="130" width="170" height="50" as="geometry" />
        </mxCell>
        <mxCell id="OLApJ6iFo3VQvdXCtHPA-18" value="SCF内网拉取文件到函数进行转码处理" style="text;html=1;strokeColor=none;fillColor=none;align=center;verticalAlign=middle;whiteSpace=wrap;rounded=0;fontSize=14;" vertex="1" parent="1">
          <mxGeometry x="690" y="400" width="130" height="50" as="geometry" />
        </mxCell>
      </root>
    </mxGraphModel>
  </diagram>
</mxfile>
